<?xml version="1.0" encoding="UTF-8" standalone="no"?>
<!DOCTYPE svg PUBLIC "-//W3C//DTD SVG 1.1//EN"
 "http://www.w3.org/Graphics/SVG/1.1/DTD/svg11.dtd">
<!-- Generated by graphviz version 2.43.0 (0)
 -->
<!-- Title: %3 Pages: 1 -->
<svg width="764pt" height="670pt"
 viewBox="0.00 0.00 764.00 670.00" xmlns="http://www.w3.org/2000/svg" xmlns:xlink="http://www.w3.org/1999/xlink">
<g id="graph0" class="graph" transform="scale(1 1) rotate(0) translate(4 666)">
<title>%3</title>
<polygon fill="white" stroke="transparent" points="-4,4 -4,-666 760,-666 760,4 -4,4"/>
<!-- A -->
<g id="node1" class="node">
<title>A</title>
<image xlink:href="icon_router.png" width="108px" height="86px" preserveAspectRatio="xMinYMin meet" x="648" y="-374"/>
<text text-anchor="middle" x="702" y="-324.8" font-family="Times,serif" font-size="24.00" fill="red">A</text>
</g>
<!-- B -->
<g id="node2" class="node">
<title>B</title>
<image xlink:href="icon_router.png" width="108px" height="86px" preserveAspectRatio="xMinYMin meet" x="432" y="-590"/>
<text text-anchor="middle" x="486" y="-540.8" font-family="Times,serif" font-size="24.00" fill="red">B</text>
</g>
<!-- A&#45;&#45;B -->
<g id="edge1" class="edge">
<title>A&#45;&#45;B</title>
<path fill="none" stroke="black" d="M658.81,-374.19C621.14,-411.86 566.77,-466.23 529.12,-503.88"/>
<text text-anchor="middle" x="587.46" y="-445.04" font-family="Times,serif" font-size="20.00" fill="blue">1</text>
</g>
<!-- C -->
<g id="node3" class="node">
<title>C</title>
<image xlink:href="icon_router.png" width="108px" height="86px" preserveAspectRatio="xMinYMin meet" x="432" y="-302"/>
<text text-anchor="middle" x="486" y="-252.8" font-family="Times,serif" font-size="24.00" fill="red">C</text>
</g>
<!-- A&#45;&#45;C -->
<g id="edge2" class="edge">
<title>A&#45;&#45;C</title>
<path fill="none" stroke="black" d="M647.77,-312.92C614.91,-301.97 573.12,-288.04 540.25,-277.08"/>
<text text-anchor="middle" x="587.51" y="-301" font-family="Times,serif" font-size="20.00" fill="blue">4</text>
</g>
<!-- B&#45;&#45;C -->
<g id="edge3" class="edge">
<title>B&#45;&#45;C</title>
<path fill="none" stroke="black" d="M486,-503.88C486,-449.59 486,-356.84 486,-302.41"/>
<text text-anchor="middle" x="479.5" y="-409.15" font-family="Times,serif" font-size="20.00" fill="blue">2</text>
</g>
<!-- D -->
<g id="node4" class="node">
<title>D</title>
<image xlink:href="icon_router.png" width="108px" height="86px" preserveAspectRatio="xMinYMin meet" x="216" y="-302"/>
<text text-anchor="middle" x="270" y="-252.8" font-family="Times,serif" font-size="24.00" fill="red">D</text>
</g>
<!-- B&#45;&#45;D -->
<g id="edge4" class="edge">
<title>B&#45;&#45;D</title>
<path fill="none" stroke="black" d="M453.66,-503.88C412.94,-449.59 343.38,-356.84 302.56,-302.41"/>
<text text-anchor="middle" x="371.61" y="-409.15" font-family="Times,serif" font-size="20.00" fill="blue">9</text>
</g>
<!-- G -->
<g id="node7" class="node">
<title>G</title>
<image xlink:href="icon_router.png" width="108px" height="86px" preserveAspectRatio="xMinYMin meet" x="72" y="-446"/>
<text text-anchor="middle" x="126" y="-396.8" font-family="Times,serif" font-size="24.00" fill="red">G</text>
</g>
<!-- B&#45;&#45;G -->
<g id="edge5" class="edge">
<title>B&#45;&#45;G</title>
<path fill="none" stroke="black" d="M431.71,-525.29C363.75,-498.1 248.03,-451.81 180.14,-424.66"/>
<text text-anchor="middle" x="299.43" y="-480.97" font-family="Times,serif" font-size="20.00" fill="blue">4</text>
</g>
<!-- H -->
<g id="node8" class="node">
<title>H</title>
<image xlink:href="icon_router.png" width="108px" height="86px" preserveAspectRatio="xMinYMin meet" x="216" y="-662"/>
<text text-anchor="middle" x="270" y="-612.8" font-family="Times,serif" font-size="24.00" fill="red">H</text>
</g>
<!-- B&#45;&#45;H -->
<g id="edge6" class="edge">
<title>B&#45;&#45;H</title>
<path fill="none" stroke="black" d="M431.77,-565.08C398.91,-576.03 357.12,-589.96 324.25,-600.92"/>
<text text-anchor="middle" x="371.51" y="-589" font-family="Times,serif" font-size="20.00" fill="blue">2</text>
</g>
<!-- C&#45;&#45;D -->
<g id="edge7" class="edge">
<title>C&#45;&#45;D</title>
<path fill="none" stroke="black" d="M431.77,-259C398.91,-259 357.12,-259 324.25,-259"/>
<text text-anchor="middle" x="371.51" y="-265" font-family="Times,serif" font-size="20.00" fill="blue">1</text>
</g>
<!-- E -->
<g id="node5" class="node">
<title>E</title>
<image xlink:href="icon_router.png" width="108px" height="86px" preserveAspectRatio="xMinYMin meet" x="288" y="-86"/>
<text text-anchor="middle" x="342" y="-36.8" font-family="Times,serif" font-size="24.00" fill="red">E</text>
</g>
<!-- C&#45;&#45;E -->
<g id="edge8" class="edge">
<title>C&#45;&#45;E</title>
<path fill="none" stroke="black" d="M457.21,-215.81C432.09,-178.14 395.85,-123.77 370.74,-86.12"/>
<text text-anchor="middle" x="407.48" y="-156.96" font-family="Times,serif" font-size="20.00" fill="blue">3</text>
</g>
<!-- D&#45;&#45;E -->
<g id="edge11" class="edge">
<title>D&#45;&#45;E</title>
<path fill="none" stroke="black" d="M284.4,-215.81C296.95,-178.14 315.08,-123.77 327.63,-86.12"/>
<text text-anchor="middle" x="299.51" y="-156.96" font-family="Times,serif" font-size="20.00" fill="blue">1</text>
</g>
<!-- F -->
<g id="node6" class="node">
<title>F</title>
<image xlink:href="icon_router.png" width="108px" height="86px" preserveAspectRatio="xMinYMin meet" x="0" y="-158"/>
<text text-anchor="middle" x="54" y="-108.8" font-family="Times,serif" font-size="24.00" fill="red">F</text>
</g>
<!-- D&#45;&#45;F -->
<g id="edge9" class="edge">
<title>D&#45;&#45;F</title>
<path fill="none" stroke="black" d="M215.77,-222.85C182.91,-200.94 141.12,-173.08 108.25,-151.17"/>
<text text-anchor="middle" x="155.51" y="-193.01" font-family="Times,serif" font-size="20.00" fill="blue">3</text>
</g>
<!-- D&#45;&#45;G -->
<g id="edge13" class="edge">
<title>D&#45;&#45;G</title>
<path fill="none" stroke="black" d="M226.8,-302.2C208.57,-320.43 187.4,-341.6 169.17,-359.83"/>
<text text-anchor="middle" x="191.48" y="-337.02" font-family="Times,serif" font-size="20.00" fill="blue">1</text>
</g>
<!-- E&#45;&#45;F -->
<g id="edge10" class="edge">
<title>E&#45;&#45;F</title>
<path fill="none" stroke="black" d="M287.83,-56.54C236.5,-69.37 159.82,-88.54 108.42,-101.4"/>
<text text-anchor="middle" x="191.62" y="-84.97" font-family="Times,serif" font-size="20.00" fill="blue">1</text>
</g>
<!-- F&#45;&#45;G -->
<g id="edge12" class="edge">
<title>F&#45;&#45;G</title>
<path fill="none" stroke="black" d="M64.78,-158.12C78.35,-212.41 101.54,-305.16 115.15,-359.59"/>
<text text-anchor="middle" x="83.46" y="-264.85" font-family="Times,serif" font-size="20.00" fill="blue">6</text>
</g>
<!-- G&#45;&#45;H -->
<g id="edge14" class="edge">
<title>G&#45;&#45;H</title>
<path fill="none" stroke="black" d="M154.79,-446.19C179.91,-483.86 216.15,-538.23 241.26,-575.88"/>
<text text-anchor="middle" x="185.02" y="-517.04" font-family="Times,serif" font-size="20.00" fill="blue">14</text>
</g>
</g>
</svg>
